<?xml version="1.0" encoding="iso-8859-1"?>
<!-- Generator: Adobe Illustrator 15.0.2, SVG Export Plug-In . SVG Version: 6.00 Build 0)  -->
<!DOCTYPE svg PUBLIC "-//W3C//DTD SVG 1.1//EN" "http://www.w3.org/Graphics/SVG/1.1/DTD/svg11.dtd">
<svg version="1.1" id="Ebene_1" xmlns="http://www.w3.org/2000/svg" xmlns:xlink="http://www.w3.org/1999/xlink" x="0px" y="0px"
	 width="283.465px" height="283.465px" viewBox="0 0 283.465 283.465" style="enable-background:new 0 0 283.465 283.465;"
	 xml:space="preserve">
<g>
	<defs>
		<rect id="SVGID_1_" width="283.465" height="283.465"/>
	</defs>
	<clipPath id="SVGID_2_">
		<use xlink:href="#SVGID_1_"  style="overflow:visible;"/>
	</clipPath>
	<path style="clip-path:url(#SVGID_2_);" d="M93.928,16.699c0.3,0,0.479,0.06,0.6,0.3c2.7,4.5,13.679,23.279,17.519,29.818
		c0.3,0.541,0.72,1.381,1.08,2.041l0.239-0.121c0-0.78-0.059-1.68-0.059-2.399c0-5.4-0.18-24.419-0.48-27.179
		c-0.06-0.721-0.36-1.08-0.961-1.2l-3.119-0.48c-0.179-0.06-0.3-0.36-0.3-0.599c0-0.121,0-0.181,0.121-0.181h10.259
		c0.18,0,0.18,0.06,0.18,0.181c0,0.239-0.12,0.599-0.36,0.659l-1.92,0.42c-0.601,0.12-0.84,0.36-0.9,1.5
		c-0.18,2.04-0.541,11.46-0.72,15.539c-0.119,2.7-0.42,16.44-0.42,18.6c0,0.18-0.061,0.299-0.3,0.359
		c-0.42,0.18-1.319,0.36-1.8,0.36c-0.36,0-0.721-0.18-1.019-0.539c-3.961-5.881-14.1-21.661-18.72-29.279
		c-0.24-0.481-0.6-1.141-0.96-1.74l-0.24,0.06c-0.06,0.84-0.06,1.56-0.06,2.1c-0.18,5.4-0.6,24.718-0.66,26.638
		c0,0.6,0.18,0.721,0.6,0.781l3.78,0.658c0.18,0.061,0.3,0.362,0.3,0.602c0,0.119,0,0.18-0.12,0.18
		c-1.02-0.061-3.24-0.121-5.22-0.121c-1.86,0-3.54,0.06-4.62,0.121c-0.18,0-0.18-0.061-0.18-0.18c0-0.24,0.12-0.541,0.3-0.602
		l2.88-0.599c0.42-0.119,0.72-0.24,0.72-0.901c0.06-1.859-0.12-13.918-0.18-16.677c0-2.461-0.24-14.34-0.3-15.54
		c-0.06-0.66-0.18-1.14-0.84-1.261l-2.7-0.479c-0.24,0-0.36-0.3-0.36-0.659c0-0.121,0-0.181,0.12-0.181H93.928z"/>
	<circle style="clip-path:url(#SVGID_2_);fill:none;stroke:#000000;stroke-width:3;" cx="142.593" cy="142.439" r="76.241"/>
	
		<line style="clip-path:url(#SVGID_2_);fill:none;stroke:#000000;stroke-width:2;" x1="41.531" y1="141.768" x2="41.395" y2="141.768"/>
	
		<line style="clip-path:url(#SVGID_2_);fill:none;stroke:#000000;stroke-width:3;" x1="41.531" y1="141.768" x2="240.333" y2="141.768"/>
	<g style="clip-path:url(#SVGID_2_);">
		<defs>
			<rect id="SVGID_3_" x="128.484" y="10.123" width="26.367" height="269.271"/>
		</defs>
		<clipPath id="SVGID_4_">
			<use xlink:href="#SVGID_3_"  style="overflow:visible;"/>
		</clipPath>
		<path style="clip-path:url(#SVGID_4_);" d="M141.668,10.123c2.922,14.383,7.909,32.227,13.185,43.286L141.668,44.7l-13.184,8.709
			C133.762,42.35,138.75,24.506,141.668,10.123"/>
		<polygon style="clip-path:url(#SVGID_4_);" points="131.845,235.213 132.342,234.434 140.31,219.75 140.31,263.672 
			131.845,279.394 		"/>
		<path style="clip-path:url(#SVGID_4_);" d="M151.34,279.395l-8.182-15.723v-43.921c2.348,5.719,5.12,10.915,8.182,15.592V279.395z
			"/>
		<line style="clip-path:url(#SVGID_4_);" x1="141.619" y1="218.064" x2="141.619" y2="48.147"/>
		
			<line style="clip-path:url(#SVGID_4_);fill:none;stroke:#000000;stroke-width:3;" x1="141.619" y1="218.064" x2="141.619" y2="48.147"/>
	</g>
</g>
</svg>
