<?xml version="1.0" encoding="iso-8859-1"?>
<!-- Generator: Adobe Illustrator 15.0.2, SVG Export Plug-In . SVG Version: 6.00 Build 0)  -->
<!DOCTYPE svg PUBLIC "-//W3C//DTD SVG 1.1//EN" "http://www.w3.org/Graphics/SVG/1.1/DTD/svg11.dtd">
<svg version="1.1" id="Ebene_1" xmlns="http://www.w3.org/2000/svg" xmlns:xlink="http://www.w3.org/1999/xlink" x="0px" y="0px"
	 width="283.465px" height="283.465px" viewBox="0 0 283.465 283.465" style="enable-background:new 0 0 283.465 283.465;"
	 xml:space="preserve">
<g>
	<polygon style="fill:#FFFFFF;" points="239.738,253.252 141.826,197.799 141.332,197.517 140.839,197.799 44.251,252.806 
		141.34,16.399 239.738,253.252 	"/>
	<path d="M141.333,13.778l100.444,241.778l-100.444-56.889l-99.111,56.444L141.333,13.778 M141.344,19.017L46.278,250.5
		l94.065-53.571l0.987-0.562l0.988,0.56l95.377,54.02L141.344,19.017L141.344,19.017z"/>
</g>
<polygon points="141.158,17.58 238.349,251.294 141.317,196.847 "/>
<g>
	<path d="M134.284,217.708c0.3,0,0.479,0.06,0.6,0.3c2.7,4.5,13.68,23.279,17.52,29.818c0.3,0.541,0.72,1.381,1.08,2.041
		l0.239-0.121c0-0.779-0.06-1.68-0.06-2.399c0-5.399-0.18-24.419-0.479-27.179c-0.061-0.721-0.36-1.08-0.961-1.2l-3.119-0.479
		c-0.18-0.061-0.301-0.36-0.301-0.6c0-0.121,0-0.181,0.121-0.181h10.26c0.18,0,0.18,0.06,0.18,0.181c0,0.239-0.12,0.6-0.36,0.659
		l-1.92,0.42c-0.601,0.12-0.84,0.36-0.899,1.5c-0.181,2.04-0.541,11.46-0.721,15.54c-0.119,2.699-0.42,16.439-0.42,18.599
		c0,0.181-0.061,0.3-0.3,0.36c-0.42,0.18-1.319,0.359-1.8,0.359c-0.36,0-0.721-0.18-1.02-0.539
		c-3.961-5.881-14.1-21.66-18.72-29.279c-0.24-0.48-0.6-1.141-0.96-1.74l-0.24,0.061c-0.06,0.84-0.06,1.56-0.06,2.1
		c-0.18,5.4-0.6,24.719-0.66,26.639c0,0.6,0.18,0.721,0.6,0.78l3.78,0.659c0.18,0.061,0.3,0.361,0.3,0.601
		c0,0.12,0,0.181-0.12,0.181c-1.02-0.061-3.24-0.121-5.22-0.121c-1.86,0-3.54,0.061-4.62,0.121c-0.18,0-0.18-0.061-0.18-0.181
		c0-0.239,0.12-0.54,0.3-0.601l2.88-0.6c0.42-0.119,0.72-0.24,0.72-0.9c0.06-1.859-0.12-13.918-0.18-16.679
		c0-2.46-0.24-14.339-0.3-15.539c-0.06-0.66-0.18-1.14-0.84-1.261l-2.7-0.479c-0.24,0-0.36-0.3-0.36-0.659
		c0-0.121,0-0.181,0.12-0.181H134.284z"/>
</g>
</svg>
